<svg width="113" height="61" viewBox="0 0 113 61" fill="none" xmlns="http://www.w3.org/2000/svg">
<g id="Logo " clip-path="url(#clip0_16_1532)">
<path id="Vector" d="M99.413 47.7565L74.6736 46.4592L63.4639 23.364L89.5345 0L113 25.9695L99.413 47.7565Z" fill="#534A97"/>
<path id="Vector_2" d="M98.7761 17.0935L98.5506 21.3553L97.8296 34.9886L91.3612 34.6495L85.2134 34.3257L83.7737 34.2486L81.768 34.1451L80.5273 34.079L81.4738 16.1838L92.9468 16.7873L98.7761 17.0935Z" fill="url(#paint0_radial_16_1532)"/>
<path id="Vector_3" d="M103.183 15.109L98.5504 21.3553L98.4 21.5579L96.193 32.8632L91.361 34.6495L85.2132 34.3257L88.7626 29.5287C89.5388 29.7842 90.4234 29.5309 90.9342 28.8393C91.6485 27.8768 91.3323 26.4738 90.1846 25.9342C89.4857 25.6039 88.6299 25.736 88.0638 26.2602C87.3008 26.9672 87.2455 28.0574 87.7918 28.8151L83.7736 34.2486L81.7678 34.1451L82.3914 22.7362L92.5773 17.2851L92.9466 16.7873L98.2474 9.64246L103.183 15.109Z" fill="white"/>
<g id="Group">
<g id="Group_2">
<path id="Vector_4" d="M10.9134 32.7575C9.3455 33.1561 7.83508 33.7024 6.37996 34.3961C4.92483 35.0899 3.61124 36.0084 2.43697 37.1536L4.77446 38.028C4.67273 38.1161 4.56216 38.2174 4.44274 38.332C4.32332 38.4465 4.21054 38.5368 4.10439 38.6029C3.79479 38.7064 3.36135 38.7086 2.80628 38.6095C2.249 38.5126 1.7271 38.343 1.23837 38.1051C0.749641 37.8673 0.386965 37.5699 0.145919 37.2175C-0.0929166 36.8651 -0.0398421 36.4819 0.307353 36.07C0.769544 35.5194 1.27375 35.0393 1.81998 34.6252C2.36399 34.2111 2.93012 33.8367 3.51173 33.4975C4.09333 33.1605 4.69042 32.861 5.29857 32.5989C5.90671 32.3368 6.51486 32.0813 7.12742 31.8324C7.72009 31.61 8.60688 31.3039 9.78999 30.9162C10.9731 30.5286 12.2978 30.1498 13.7639 29.7797C15.2301 29.4097 16.7472 29.0859 18.3129 28.804C19.8786 28.5221 21.3425 28.3701 22.7092 28.3459C24.0737 28.3217 25.2546 28.4715 26.2497 28.793C27.2449 29.1146 27.8884 29.6938 28.1803 30.5264C27.769 30.4603 27.4262 30.37 27.1476 30.2577C26.8689 30.1453 26.5947 30.0484 26.3227 29.9691C26.0507 29.8899 25.7521 29.826 25.4271 29.7797C25.102 29.7335 24.6862 29.7335 24.1798 29.7775C22.3775 29.9163 20.5929 30.1784 18.8259 30.566C17.0568 30.9537 15.3097 31.4206 13.5826 31.9646C13.6202 32.1672 13.6622 32.3699 13.7109 32.5703C13.7595 32.7707 13.7794 32.9777 13.7706 33.1892C13.6777 34.3499 13.6313 35.6516 13.6379 37.0964C13.6423 38.5412 13.6888 40.0565 13.7772 41.6379C13.8657 43.2193 14.0006 44.8403 14.1841 46.4988C14.3677 48.1573 14.5999 49.7607 14.8807 51.3068C15.1616 52.853 15.4867 54.3176 15.8538 55.6964C16.2209 57.0773 16.641 58.2953 17.1143 59.3525C17.2669 59.6741 17.3022 59.9075 17.2226 60.0507C17.143 60.1938 16.955 60.3502 16.6587 60.5198C16.2562 60.7555 15.8803 60.9096 15.5309 60.9845C15.1815 61.0594 14.8498 60.8788 14.5379 60.4449C14.0006 59.6785 13.5362 58.5728 13.1447 57.128C12.7533 55.6831 12.415 54.0753 12.1297 52.3067C11.8444 50.5381 11.6122 48.6792 11.4331 46.73C11.254 44.7809 11.1191 42.9087 11.0284 41.1181C10.9377 39.3275 10.8824 37.6977 10.8625 36.233C10.8426 34.7662 10.8625 33.6099 10.9178 32.7597L10.9134 32.7575Z" fill="#E91637"/>
<path id="Vector_5" d="M20.9975 43.6069C21.4397 43.5981 21.7626 43.6333 21.9661 43.7126C22.1673 43.7941 22.2912 43.8932 22.3376 44.0144C22.3818 44.1333 22.3862 44.25 22.3486 44.3624C22.3111 44.4747 22.2757 44.5672 22.2425 44.6443C22.1054 44.9262 21.986 45.2962 21.882 45.7587C21.7781 46.2213 21.6808 46.7102 21.5879 47.2278C21.495 47.7476 21.4198 48.2674 21.3623 48.7916C21.3049 49.3158 21.2673 49.7893 21.2518 50.2122C21.2208 50.9412 21.265 51.4764 21.3845 51.8156C21.5039 52.1548 21.6675 52.342 21.8732 52.375C22.0766 52.408 22.3066 52.3199 22.5632 52.1107C22.8175 51.9015 23.0519 51.6041 23.262 51.2143C23.8082 50.2298 24.277 49.1946 24.6662 48.111C25.0554 47.0274 25.2921 45.8821 25.3783 44.6773C25.385 44.5826 25.3894 44.4769 25.3916 44.3602C25.3916 44.2434 25.438 44.1311 25.5243 44.021C25.6105 43.9131 25.7498 43.8117 25.9444 43.717C26.1391 43.6245 26.4177 43.5563 26.7848 43.5122C27.2381 43.4307 27.5942 43.4241 27.8529 43.4946C28.1117 43.5651 28.293 43.6664 28.3991 43.7985C28.5053 43.9307 28.5738 44.076 28.6026 44.2346C28.6313 44.3932 28.6424 44.5187 28.6358 44.6134C28.6358 45.2654 28.6557 45.946 28.6888 46.6507C28.7242 47.3555 28.753 47.904 28.7773 48.296C28.8591 49.0052 29.0382 49.4743 29.3147 49.7034C29.5911 49.9346 29.9184 49.9963 30.2988 49.8928C30.6769 49.7893 31.0882 49.5712 31.5327 49.2343C31.975 48.8973 32.4107 48.5229 32.8375 48.1066C33.2665 47.6925 33.6579 47.2763 34.0162 46.8622C34.3744 46.4481 34.6686 46.1023 34.9008 45.8292L35.6792 46.6331C35.3784 47.0362 34.9627 47.5273 34.4342 48.1C33.9056 48.6726 33.3284 49.2321 32.7004 49.7761C32.0723 50.3201 31.4222 50.8002 30.7477 51.2121C30.0732 51.6262 29.4319 51.8684 28.8259 51.9433C28.2178 52.0182 27.6716 51.8772 27.1851 51.5204C26.6985 51.1658 26.3292 50.4853 26.0771 49.4809C25.7277 50.0117 25.396 50.5712 25.082 51.1636C24.768 51.7561 24.4075 52.2891 24.0006 52.7582C23.5716 53.2318 23.1249 53.5467 22.6605 53.6987C22.1961 53.8529 21.756 53.8793 21.3402 53.7802C20.9245 53.6811 20.5397 53.4696 20.1881 53.1481C19.8365 52.8265 19.5689 52.4146 19.3831 51.9103C19.1907 51.3619 19.0558 50.7518 18.9806 50.0756C18.9054 49.4016 18.8745 48.7123 18.8878 48.0097C18.901 47.3071 18.9519 46.6221 19.0403 45.9526C19.1288 45.283 19.246 44.7037 19.392 44.2104C19.445 43.9901 19.5246 43.8426 19.6286 43.7655C19.7325 43.6884 19.8564 43.6377 20.0045 43.6091C20.1527 43.5827 20.3097 43.5783 20.4756 43.5937C20.6414 43.6113 20.8183 43.6135 21.0041 43.6025L20.9975 43.6069Z" fill="#E91637"/>
<path id="Vector_6" d="M44.0871 44.6267C43.9544 45.1883 43.7907 45.8931 43.5939 46.7455C43.3971 47.5979 43.1472 48.4414 42.842 49.2784C42.5368 50.1153 42.1764 50.873 41.7628 51.5535C41.3471 52.2363 40.8584 52.6966 40.2922 52.9389C39.7261 53.1812 39.2042 53.2054 38.7243 53.0116C38.2444 52.8177 37.7955 52.5138 37.382 52.0997C36.9662 51.6857 36.6058 51.2077 36.2962 50.6681C35.9866 50.1285 35.7455 49.6308 35.5686 49.1726C35.2833 48.5009 35.0312 47.7939 34.8145 47.0516C34.5978 46.3094 34.4098 45.5672 34.2528 44.8271C34.0958 44.0849 33.9653 43.3691 33.8614 42.6753C33.7597 41.9815 33.6778 41.3384 33.6159 40.7415C33.2223 40.7658 32.8154 40.8406 32.3908 40.9618C31.9684 41.0851 31.5947 41.1512 31.2674 41.1644C31.1037 41.171 30.9954 41.1137 30.9379 40.997C30.8826 40.8781 30.8693 40.7415 30.8981 40.5851C30.929 40.4288 30.9954 40.2812 31.0993 40.1469C31.2032 40.0125 31.3226 39.931 31.4598 39.9068C31.7738 39.8275 32.1077 39.7614 32.4615 39.7086C32.8154 39.6579 33.1471 39.5786 33.4567 39.4773C33.3129 38.0347 33.2112 36.6691 33.1537 35.3851C33.0962 34.101 33.1139 32.8214 33.2112 31.544C33.24 31.1894 33.3041 30.9273 33.4014 30.7577C33.4987 30.5881 33.627 30.4846 33.784 30.4449C33.941 30.4053 34.129 30.4075 34.3457 30.4493C34.5646 30.4912 34.8057 30.5352 35.0732 30.5815C35.29 30.6123 35.4448 30.6321 35.5399 30.6365C35.635 30.6431 35.7035 30.6652 35.7455 30.7048C35.7875 30.7445 35.8052 30.8061 35.7964 30.8876C35.7875 30.9713 35.7898 31.1167 35.8052 31.3237C35.8074 32.6298 35.8141 33.9226 35.8251 35.2045C35.834 36.4863 35.8539 37.777 35.8782 39.0786C36.1922 38.9994 36.5416 38.9002 36.9309 38.7835C37.3201 38.6668 37.7137 38.5787 38.1118 38.517C38.5098 38.4576 38.8791 38.4598 39.2197 38.528C39.5603 38.5941 39.8499 38.7813 40.0932 39.0875L36.1524 40.2173C36.1281 40.594 36.1569 41.1446 36.2409 41.8626C36.3249 42.5828 36.4488 43.3713 36.6168 44.2259C36.7849 45.0826 36.9795 45.9614 37.2006 46.8666C37.424 47.7719 37.6761 48.589 37.9614 49.318C38.2467 50.0492 38.554 50.6505 38.888 51.1284C39.2197 51.6064 39.5691 51.8509 39.9362 51.8663C40.3011 51.8817 40.6814 51.6218 41.0773 51.0844C41.4709 50.547 41.869 49.6352 42.2671 48.3511C42.5214 47.5582 42.7403 46.7675 42.9261 45.9768C43.1096 45.1861 43.2644 44.6157 43.3882 44.2655L44.0871 44.6289V44.6267Z" fill="#E91637"/>
<path id="Vector_7" d="M42.7801 37.2351C42.7071 36.8276 42.7226 36.4995 42.8288 36.2462C42.9349 35.9951 43.0853 35.8145 43.2755 35.711C43.4679 35.6075 43.6824 35.5634 43.919 35.5766C44.1556 35.592 44.3569 35.6669 44.5227 35.8013C44.6554 35.8938 44.7527 36.0391 44.8124 36.2396C44.8721 36.4378 44.8965 36.6448 44.8898 36.8563C44.9031 37.321 44.8168 37.68 44.6289 37.9355C44.4409 38.191 44.222 38.3407 43.9743 38.3848C43.7244 38.4288 43.4833 38.3562 43.2489 38.1645C43.0145 37.9729 42.8597 37.6624 42.7823 37.2351H42.7801ZM51.805 43.4109C51.575 43.8249 51.2698 44.3293 50.885 44.924C50.5002 45.5186 50.0668 46.0979 49.5847 46.6617C49.1026 47.2278 48.5896 47.7321 48.0522 48.1792C47.5126 48.6263 46.9863 48.9193 46.4732 49.058C45.9602 49.1968 45.4626 49.1417 44.9849 48.8884C44.505 48.6374 44.0981 48.0977 43.7598 47.2718C43.5607 46.8181 43.3971 46.3005 43.2666 45.7169C43.1384 45.1332 43.0477 44.5429 42.9968 43.9461C42.9482 43.3492 42.9216 42.7523 42.9172 42.1576C42.915 41.563 42.9504 41.0146 43.0234 40.5124C43.0543 40.2965 43.1914 40.1159 43.4347 39.9662C43.6757 39.8186 43.9367 39.7305 44.2131 39.7041C44.4895 39.6777 44.7461 39.7019 44.9805 39.7768C45.2171 39.8516 45.3432 40.0036 45.3631 40.2327C45.3918 40.3913 45.4007 40.7282 45.3874 41.2436C45.3763 41.759 45.3763 42.3361 45.3874 42.977C45.3985 43.6179 45.4338 44.2632 45.4935 44.9174C45.5533 45.5715 45.666 46.1287 45.8319 46.589C45.9977 47.0494 46.2233 47.3577 46.5086 47.5163C46.7939 47.6749 47.1742 47.5714 47.6475 47.2057C48.3441 46.6595 48.9677 46.001 49.5184 45.2235C50.069 44.4482 50.5688 43.6818 51.0155 42.9241L51.8072 43.4109H51.805Z" fill="#E91637"/>
<path id="Vector_8" d="M61.3364 41.7304C60.7327 42.1423 60.0494 42.4748 59.2864 42.7303C58.5257 42.9836 57.7782 43.1642 57.0484 43.2721C56.9865 43.7038 56.8826 44.1664 56.7388 44.6575C56.5929 45.1509 56.4093 45.6156 56.1838 46.0517C55.9582 46.49 55.684 46.8776 55.3589 47.2146C55.0338 47.5538 54.6623 47.7961 54.2443 47.9392C53.7976 48.067 53.3575 48.0581 52.9219 47.915C52.4862 47.7718 52.1081 47.4613 51.7874 46.9833C51.5375 46.6331 51.3363 46.2081 51.1881 45.7103C51.04 45.2125 50.9272 44.695 50.8542 44.1619C50.7812 43.6267 50.737 43.0982 50.7237 42.5762C50.7105 42.0542 50.7237 41.5784 50.7635 41.1512C50.7945 40.6798 50.8586 40.29 50.9537 39.9794C51.0488 39.6711 51.197 39.4178 51.396 39.2174C51.5928 39.0192 51.8538 38.8672 52.1744 38.7615C52.4951 38.6579 52.9042 38.561 53.404 38.4707C53.4836 38.2703 53.5632 38.0633 53.6428 37.8496C53.7224 37.6382 53.8153 37.4466 53.9259 37.2748C54.0365 37.103 54.1802 36.9664 54.3615 36.8651C54.5429 36.7616 54.7729 36.7087 55.0537 36.7065C55.642 36.7176 56.0909 36.94 56.4049 37.3739C56.7167 37.8078 56.9423 38.332 57.0772 38.9487C57.2121 39.5654 57.2762 40.2019 57.2652 40.856C57.2541 41.5102 57.2209 42.0652 57.1634 42.5189C57.7672 42.3625 58.4173 42.1643 59.1095 41.922C59.8039 41.6798 60.4253 41.4044 60.9804 41.0961L61.3408 41.7304H61.3364ZM53.32 41.4947C53.2116 41.9352 53.1497 42.4594 53.132 43.0673C53.1143 43.6774 53.143 44.2545 53.2182 44.8007C53.3222 45.5055 53.4991 45.957 53.7468 46.1574C53.9944 46.3578 54.2576 46.327 54.5385 46.0671C54.8326 45.7566 55.067 45.3359 55.2395 44.8029C55.412 44.2699 55.5225 43.814 55.5712 43.4307C55.0913 43.2369 54.6557 42.9726 54.2664 42.6334C53.8772 42.2964 53.561 41.9154 53.3222 41.4925L53.32 41.4947ZM55.0161 37.4818C54.8149 37.7968 54.649 38.202 54.5163 38.691C54.3837 39.1821 54.3262 39.6755 54.3461 40.1733C54.366 40.671 54.4787 41.1291 54.6844 41.5476C54.8879 41.9661 55.2063 42.2634 55.6375 42.444C55.653 42.0211 55.6663 41.5696 55.6729 41.0895C55.6796 40.6115 55.6597 40.1468 55.6132 39.6997C55.5668 39.2526 55.496 38.8341 55.4031 38.4421C55.308 38.0523 55.1798 37.7307 55.0183 37.4796L55.0161 37.4818Z" fill="#E91637"/>
<path id="Vector_9" d="M73.9857 39.4178C73.696 39.7504 73.3245 40.0962 72.8756 40.4574C72.4245 40.8186 71.9357 41.1468 71.4028 41.4397C70.8698 41.7349 70.328 41.9661 69.7729 42.1357C69.2179 42.3053 68.7137 42.3626 68.2581 42.3031C67.8026 42.2458 67.4023 42.0432 67.0595 41.6974C66.7167 41.3516 66.5 40.812 66.4138 40.0808C66.3342 39.5126 66.2899 38.9421 66.2789 38.3739C66.2678 37.8034 66.2081 37.3431 66.0975 36.9885C64.9233 38.3893 64.1913 39.8694 63.8994 41.4265C63.6075 42.9837 63.6163 44.6091 63.9237 46.3028C63.6605 46.3975 63.4106 46.4768 63.1762 46.5429C62.9418 46.609 62.7362 46.6332 62.557 46.62C62.3801 46.6046 62.2143 46.5407 62.0661 46.4284C61.9179 46.316 61.7919 46.1156 61.6946 45.8315C61.4867 45.3337 61.27 44.6135 61.04 43.6752C60.8122 42.737 60.6264 41.7503 60.4849 40.7129C60.3434 39.6777 60.277 38.6932 60.2815 37.7572C60.2881 36.8233 60.4097 36.1119 60.6508 35.6274L61.7078 35.6472C62.1015 35.623 62.4398 35.6142 62.7229 35.623C63.0059 35.6318 63.132 35.8124 63.1033 36.167C63.0701 36.4996 63.0347 36.8916 62.9993 37.3409C62.9639 37.7902 62.9285 38.2461 62.8954 38.7064C62.8622 39.1668 62.8379 39.6139 62.8224 40.05C62.8069 40.4838 62.8202 40.8737 62.8578 41.2151C63.0059 40.7459 63.2227 40.1645 63.5079 39.4707C63.791 38.7791 64.1316 38.1294 64.5252 37.5215C64.9188 36.9136 65.3567 36.4225 65.8366 36.0436C66.3187 35.6648 66.8317 35.5547 67.3758 35.7133C67.7207 35.8146 67.9706 36.0216 68.121 36.3322C68.2714 36.6427 68.3753 36.9929 68.4328 37.3783C68.4903 37.766 68.5213 38.1624 68.5257 38.5699C68.5301 38.9773 68.5567 39.3165 68.6053 39.5874C68.7402 40.3319 69.0343 40.7526 69.4832 40.8451C69.9344 40.9398 70.432 40.8781 70.9782 40.6645C71.5244 40.4486 72.0507 40.1557 72.5571 39.7857C73.0636 39.4156 73.4262 39.1271 73.6474 38.9245L73.9835 39.4245L73.9857 39.4178Z" fill="#E91637"/>
<path id="Vector_10" d="M72.92 31.8082C72.847 31.4008 72.8625 31.0726 72.9687 30.8193C73.0748 30.5682 73.2252 30.3876 73.4154 30.2841C73.6056 30.1806 73.8201 30.1365 74.0589 30.1497C74.2955 30.1652 74.4968 30.24 74.6626 30.3744C74.7953 30.4669 74.8926 30.6123 74.9523 30.8127C75.012 31.0109 75.0363 31.2179 75.0297 31.4294C75.043 31.8941 74.9567 32.2531 74.7688 32.5086C74.5808 32.7641 74.3619 32.9139 74.112 32.9579C73.8621 33.0042 73.621 32.9293 73.3866 32.7377C73.1522 32.546 72.9974 32.2355 72.92 31.8082ZM81.9449 37.984C81.7149 38.3981 81.4097 38.9024 81.0249 39.4971C80.6401 40.0918 80.2067 40.671 79.7246 41.2348C79.2403 41.8009 78.7294 42.3053 78.1899 42.7524C77.6503 43.1995 77.1239 43.4924 76.6109 43.6312C76.0978 43.7699 75.6003 43.7148 75.1226 43.4616C74.6427 43.2105 74.2358 42.6709 73.8975 41.8449C73.6984 41.3912 73.5348 40.8736 73.4043 40.29C73.276 39.7063 73.1854 39.1161 73.1345 38.5192C73.0859 37.9223 73.0593 37.3254 73.0549 36.7308C73.0527 36.1361 73.0881 35.5877 73.161 35.0855C73.192 34.8697 73.3291 34.6891 73.5724 34.5393C73.8134 34.3917 74.0744 34.3036 74.3508 34.2772C74.6272 34.2508 74.8838 34.275 75.1182 34.3499C75.3548 34.4248 75.4808 34.5767 75.4985 34.8058C75.5273 34.9644 75.5361 35.3014 75.5229 35.8167C75.5118 36.3321 75.5118 36.9092 75.5229 37.5479C75.5339 38.1888 75.5693 38.8341 75.629 39.4883C75.6887 40.1424 75.8015 40.6996 75.9674 41.16C76.1332 41.6203 76.3588 41.9286 76.6441 42.0872C76.9293 42.2458 77.3097 42.1423 77.783 41.7767C78.4796 41.2304 79.1032 40.5719 79.6538 39.7944C80.2045 39.0191 80.702 38.2527 81.151 37.495L81.9427 37.9818L81.9449 37.984Z" fill="#E91637"/>
</g>
<g id="Group_3">
<path id="Vector_11" d="M10.9134 32.7575C9.3455 33.1561 7.83508 33.7024 6.37996 34.3961C4.92483 35.0899 3.61124 36.0084 2.43697 37.1536L4.77446 38.028C4.67273 38.1161 4.56216 38.2174 4.44274 38.332C4.32332 38.4465 4.21054 38.5368 4.10439 38.6029C3.79479 38.7064 3.36135 38.7086 2.80628 38.6095C2.249 38.5126 1.7271 38.343 1.23837 38.1051C0.749641 37.8673 0.386965 37.5699 0.145919 37.2175C-0.0929166 36.8651 -0.0398421 36.4819 0.307353 36.07C0.769544 35.5194 1.27375 35.0393 1.81998 34.6252C2.36399 34.2111 2.93012 33.8367 3.51173 33.4975C4.09333 33.1605 4.69042 32.861 5.29857 32.5989C5.90671 32.3368 6.51486 32.0813 7.12742 31.8324C7.72009 31.61 8.60688 31.3039 9.78999 30.9162C10.9731 30.5286 12.2978 30.1498 13.7639 29.7797C15.2301 29.4097 16.7472 29.0859 18.3129 28.804C19.8786 28.5221 21.3425 28.3701 22.7092 28.3459C24.0737 28.3217 25.2546 28.4715 26.2497 28.793C27.2449 29.1146 27.8884 29.6938 28.1803 30.5264C27.769 30.4603 27.4262 30.37 27.1476 30.2577C26.8689 30.1453 26.5947 30.0484 26.3227 29.9691C26.0507 29.8899 25.7521 29.826 25.4271 29.7797C25.102 29.7335 24.6862 29.7335 24.1798 29.7775C22.3775 29.9163 20.5929 30.1784 18.8259 30.566C17.0568 30.9537 15.3097 31.4206 13.5826 31.9646C13.6202 32.1672 13.6622 32.3699 13.7109 32.5703C13.7595 32.7707 13.7794 32.9777 13.7706 33.1892C13.6777 34.3499 13.6313 35.6516 13.6379 37.0964C13.6423 38.5412 13.6888 40.0565 13.7772 41.6379C13.8657 43.2193 14.0006 44.8403 14.1841 46.4988C14.3677 48.1573 14.5999 49.7607 14.8807 51.3068C15.1616 52.853 15.4867 54.3176 15.8538 55.6964C16.2209 57.0773 16.641 58.2953 17.1143 59.3525C17.2669 59.6741 17.3022 59.9075 17.2226 60.0507C17.143 60.1938 16.955 60.3502 16.6587 60.5198C16.2562 60.7555 15.8803 60.9096 15.5309 60.9845C15.1815 61.0594 14.8498 60.8788 14.5379 60.4449C14.0006 59.6785 13.5362 58.5728 13.1447 57.128C12.7533 55.6831 12.415 54.0753 12.1297 52.3067C11.8444 50.5381 11.6122 48.6792 11.4331 46.73C11.254 44.7809 11.1191 42.9087 11.0284 41.1181C10.9377 39.3275 10.8824 37.6977 10.8625 36.233C10.8426 34.7662 10.8625 33.6099 10.9178 32.7597L10.9134 32.7575Z" fill="url(#paint1_linear_16_1532)"/>
<path id="Vector_12" d="M20.9975 43.6069C21.4397 43.5981 21.7626 43.6333 21.9661 43.7126C22.1673 43.7941 22.2912 43.8932 22.3376 44.0144C22.3818 44.1333 22.3862 44.25 22.3486 44.3624C22.3111 44.4747 22.2757 44.5672 22.2425 44.6443C22.1054 44.9262 21.986 45.2962 21.882 45.7587C21.7781 46.2213 21.6808 46.7102 21.5879 47.2278C21.495 47.7476 21.4198 48.2674 21.3623 48.7916C21.3049 49.3158 21.2673 49.7893 21.2518 50.2122C21.2208 50.9412 21.265 51.4764 21.3845 51.8156C21.5039 52.1548 21.6675 52.342 21.8732 52.375C22.0766 52.408 22.3066 52.3199 22.5632 52.1107C22.8175 51.9015 23.0519 51.6041 23.262 51.2143C23.8082 50.2298 24.277 49.1946 24.6662 48.111C25.0554 47.0274 25.2921 45.8821 25.3783 44.6773C25.385 44.5826 25.3894 44.4769 25.3916 44.3602C25.3916 44.2434 25.438 44.1311 25.5243 44.021C25.6105 43.9131 25.7498 43.8117 25.9444 43.717C26.1391 43.6245 26.4177 43.5563 26.7848 43.5122C27.2381 43.4307 27.5942 43.4241 27.8529 43.4946C28.1117 43.5651 28.293 43.6664 28.3991 43.7985C28.5053 43.9307 28.5738 44.076 28.6026 44.2346C28.6313 44.3932 28.6424 44.5187 28.6358 44.6134C28.6358 45.2654 28.6557 45.946 28.6888 46.6507C28.7242 47.3555 28.753 47.904 28.7773 48.296C28.8591 49.0052 29.0382 49.4743 29.3147 49.7034C29.5911 49.9346 29.9184 49.9963 30.2988 49.8928C30.6769 49.7893 31.0882 49.5712 31.5327 49.2343C31.975 48.8973 32.4107 48.5229 32.8375 48.1066C33.2665 47.6925 33.6579 47.2763 34.0162 46.8622C34.3744 46.4481 34.6686 46.1023 34.9008 45.8292L35.6792 46.6331C35.3784 47.0362 34.9627 47.5273 34.4342 48.1C33.9056 48.6726 33.3284 49.2321 32.7004 49.7761C32.0723 50.3201 31.4222 50.8002 30.7477 51.2121C30.0732 51.6262 29.4319 51.8684 28.8259 51.9433C28.2178 52.0182 27.6716 51.8772 27.1851 51.5204C26.6985 51.1658 26.3292 50.4853 26.0771 49.4809C25.7277 50.0117 25.396 50.5712 25.082 51.1636C24.768 51.7561 24.4075 52.2891 24.0006 52.7582C23.5716 53.2318 23.1249 53.5467 22.6605 53.6987C22.1961 53.8529 21.756 53.8793 21.3402 53.7802C20.9245 53.6811 20.5397 53.4696 20.1881 53.1481C19.8365 52.8265 19.5689 52.4146 19.3831 51.9103C19.1907 51.3619 19.0558 50.7518 18.9806 50.0756C18.9054 49.4016 18.8745 48.7123 18.8878 48.0097C18.901 47.3071 18.9519 46.6221 19.0403 45.9526C19.1288 45.283 19.246 44.7037 19.392 44.2104C19.445 43.9901 19.5246 43.8426 19.6286 43.7655C19.7325 43.6884 19.8564 43.6377 20.0045 43.6091C20.1527 43.5827 20.3097 43.5783 20.4756 43.5937C20.6414 43.6113 20.8183 43.6135 21.0041 43.6025L20.9975 43.6069Z" fill="url(#paint2_linear_16_1532)"/>
<path id="Vector_13" d="M44.0871 44.6267C43.9544 45.1883 43.7907 45.8931 43.5939 46.7455C43.3971 47.5979 43.1472 48.4414 42.842 49.2784C42.5368 50.1153 42.1764 50.873 41.7628 51.5535C41.3471 52.2363 40.8584 52.6966 40.2922 52.9389C39.7261 53.1812 39.2042 53.2054 38.7243 53.0116C38.2444 52.8177 37.7955 52.5138 37.382 52.0997C36.9662 51.6857 36.6058 51.2077 36.2962 50.6681C35.9866 50.1285 35.7455 49.6308 35.5686 49.1726C35.2833 48.5009 35.0312 47.7939 34.8145 47.0516C34.5978 46.3094 34.4098 45.5672 34.2528 44.8271C34.0958 44.0849 33.9653 43.3691 33.8614 42.6753C33.7597 41.9815 33.6778 41.3384 33.6159 40.7415C33.2223 40.7658 32.8154 40.8406 32.3908 40.9618C31.9684 41.0851 31.5947 41.1512 31.2674 41.1644C31.1037 41.171 30.9954 41.1137 30.9379 40.997C30.8826 40.8781 30.8693 40.7415 30.8981 40.5851C30.929 40.4288 30.9954 40.2812 31.0993 40.1469C31.2032 40.0125 31.3226 39.931 31.4598 39.9068C31.7738 39.8275 32.1077 39.7614 32.4615 39.7086C32.8154 39.6579 33.1471 39.5786 33.4567 39.4773C33.3129 38.0347 33.2112 36.6691 33.1537 35.3851C33.0962 34.101 33.1139 32.8214 33.2112 31.544C33.24 31.1894 33.3041 30.9273 33.4014 30.7577C33.4987 30.5881 33.627 30.4846 33.784 30.4449C33.941 30.4053 34.129 30.4075 34.3457 30.4493C34.5646 30.4912 34.8057 30.5352 35.0732 30.5815C35.29 30.6123 35.4448 30.6321 35.5399 30.6365C35.635 30.6431 35.7035 30.6652 35.7455 30.7048C35.7875 30.7445 35.8052 30.8061 35.7964 30.8876C35.7875 30.9713 35.7898 31.1167 35.8052 31.3237C35.8074 32.6298 35.8141 33.9226 35.8251 35.2045C35.834 36.4863 35.8539 37.777 35.8782 39.0786C36.1922 38.9994 36.5416 38.9002 36.9309 38.7835C37.3201 38.6668 37.7137 38.5787 38.1118 38.517C38.5098 38.4576 38.8791 38.4598 39.2197 38.528C39.5603 38.5941 39.8499 38.7813 40.0932 39.0875L36.1524 40.2173C36.1281 40.594 36.1569 41.1446 36.2409 41.8626C36.3249 42.5828 36.4488 43.3713 36.6168 44.2259C36.7849 45.0826 36.9795 45.9614 37.2006 46.8666C37.424 47.7719 37.6761 48.589 37.9614 49.318C38.2467 50.0492 38.554 50.6505 38.888 51.1284C39.2197 51.6064 39.5691 51.8509 39.9362 51.8663C40.3011 51.8817 40.6814 51.6218 41.0773 51.0844C41.4709 50.547 41.869 49.6352 42.2671 48.3511C42.5214 47.5582 42.7403 46.7675 42.9261 45.9768C43.1096 45.1861 43.2644 44.6157 43.3882 44.2655L44.0871 44.6289V44.6267Z" fill="url(#paint3_linear_16_1532)"/>
<path id="Vector_14" d="M42.7801 37.2351C42.7071 36.8276 42.7226 36.4995 42.8288 36.2462C42.9349 35.9951 43.0853 35.8145 43.2755 35.711C43.4679 35.6075 43.6824 35.5634 43.919 35.5766C44.1556 35.592 44.3569 35.6669 44.5227 35.8013C44.6554 35.8938 44.7527 36.0391 44.8124 36.2396C44.8721 36.4378 44.8965 36.6448 44.8898 36.8563C44.9031 37.321 44.8168 37.68 44.6289 37.9355C44.4409 38.191 44.222 38.3407 43.9743 38.3848C43.7244 38.4288 43.4833 38.3562 43.2489 38.1645C43.0145 37.9729 42.8597 37.6624 42.7823 37.2351H42.7801ZM51.805 43.4109C51.575 43.8249 51.2698 44.3293 50.885 44.924C50.5002 45.5186 50.0668 46.0979 49.5847 46.6617C49.1026 47.2278 48.5896 47.7321 48.0522 48.1792C47.5126 48.6263 46.9863 48.9193 46.4732 49.058C45.9602 49.1968 45.4626 49.1417 44.9849 48.8884C44.505 48.6374 44.0981 48.0977 43.7598 47.2718C43.5607 46.8181 43.3971 46.3005 43.2666 45.7169C43.1384 45.1332 43.0477 44.5429 42.9968 43.9461C42.9482 43.3492 42.9216 42.7523 42.9172 42.1576C42.915 41.563 42.9504 41.0146 43.0234 40.5124C43.0543 40.2965 43.1914 40.1159 43.4347 39.9662C43.6757 39.8186 43.9367 39.7305 44.2131 39.7041C44.4895 39.6777 44.7461 39.7019 44.9805 39.7768C45.2171 39.8516 45.3432 40.0036 45.3631 40.2327C45.3918 40.3913 45.4007 40.7282 45.3874 41.2436C45.3763 41.759 45.3763 42.3361 45.3874 42.977C45.3985 43.6179 45.4338 44.2632 45.4935 44.9174C45.5533 45.5715 45.666 46.1287 45.8319 46.589C45.9977 47.0494 46.2233 47.3577 46.5086 47.5163C46.7939 47.6749 47.1742 47.5714 47.6475 47.2057C48.3441 46.6595 48.9677 46.001 49.5184 45.2235C50.069 44.4482 50.5688 43.6818 51.0155 42.9241L51.8072 43.4109H51.805Z" fill="url(#paint4_linear_16_1532)"/>
<path id="Vector_15" d="M61.3364 41.7304C60.7327 42.1423 60.0494 42.4748 59.2864 42.7303C58.5257 42.9836 57.7782 43.1642 57.0484 43.2721C56.9865 43.7038 56.8826 44.1664 56.7388 44.6575C56.5929 45.1509 56.4093 45.6156 56.1838 46.0517C55.9582 46.49 55.684 46.8776 55.3589 47.2146C55.0338 47.5538 54.6623 47.7961 54.2443 47.9392C53.7976 48.067 53.3575 48.0581 52.9219 47.915C52.4862 47.7718 52.1081 47.4613 51.7874 46.9833C51.5375 46.6331 51.3363 46.2081 51.1881 45.7103C51.04 45.2125 50.9272 44.695 50.8542 44.1619C50.7812 43.6267 50.737 43.0982 50.7237 42.5762C50.7105 42.0542 50.7237 41.5784 50.7635 41.1512C50.7945 40.6798 50.8586 40.29 50.9537 39.9794C51.0488 39.6711 51.197 39.4178 51.396 39.2174C51.5928 39.0192 51.8538 38.8672 52.1744 38.7615C52.4951 38.6579 52.9042 38.561 53.404 38.4707C53.4836 38.2703 53.5632 38.0633 53.6428 37.8496C53.7224 37.6382 53.8153 37.4466 53.9259 37.2748C54.0365 37.103 54.1802 36.9664 54.3615 36.8651C54.5429 36.7616 54.7729 36.7087 55.0537 36.7065C55.642 36.7176 56.0909 36.94 56.4049 37.3739C56.7167 37.8078 56.9423 38.332 57.0772 38.9487C57.2121 39.5654 57.2762 40.2019 57.2652 40.856C57.2541 41.5102 57.2209 42.0652 57.1634 42.5189C57.7672 42.3625 58.4173 42.1643 59.1095 41.922C59.8039 41.6798 60.4253 41.4044 60.9804 41.0961L61.3408 41.7304H61.3364ZM53.32 41.4947C53.2116 41.9352 53.1497 42.4594 53.132 43.0673C53.1143 43.6774 53.143 44.2545 53.2182 44.8007C53.3222 45.5055 53.4991 45.957 53.7468 46.1574C53.9944 46.3578 54.2576 46.327 54.5385 46.0671C54.8326 45.7566 55.067 45.3359 55.2395 44.8029C55.412 44.2699 55.5225 43.814 55.5712 43.4307C55.0913 43.2369 54.6557 42.9726 54.2664 42.6334C53.8772 42.2964 53.561 41.9154 53.3222 41.4925L53.32 41.4947ZM55.0161 37.4818C54.8149 37.7968 54.649 38.202 54.5163 38.691C54.3837 39.1821 54.3262 39.6755 54.3461 40.1733C54.366 40.671 54.4787 41.1291 54.6844 41.5476C54.8879 41.9661 55.2063 42.2634 55.6375 42.444C55.653 42.0211 55.6663 41.5696 55.6729 41.0895C55.6796 40.6115 55.6597 40.1468 55.6132 39.6997C55.5668 39.2526 55.496 38.8341 55.4031 38.4421C55.308 38.0523 55.1798 37.7307 55.0183 37.4796L55.0161 37.4818Z" fill="url(#paint5_linear_16_1532)"/>
<path id="Vector_16" d="M73.9857 39.4178C73.696 39.7504 73.3245 40.0962 72.8756 40.4574C72.4245 40.8186 71.9357 41.1468 71.4028 41.4397C70.8698 41.7349 70.328 41.9661 69.7729 42.1357C69.2179 42.3053 68.7137 42.3626 68.2581 42.3031C67.8026 42.2458 67.4023 42.0432 67.0595 41.6974C66.7167 41.3516 66.5 40.812 66.4138 40.0808C66.3342 39.5126 66.2899 38.9421 66.2789 38.3739C66.2678 37.8034 66.2081 37.3431 66.0975 36.9885C64.9233 38.3893 64.1913 39.8694 63.8994 41.4265C63.6075 42.9837 63.6163 44.6091 63.9237 46.3028C63.6605 46.3975 63.4106 46.4768 63.1762 46.5429C62.9418 46.609 62.7362 46.6332 62.557 46.62C62.3801 46.6046 62.2143 46.5407 62.0661 46.4284C61.9179 46.316 61.7919 46.1156 61.6946 45.8315C61.4867 45.3337 61.27 44.6135 61.04 43.6752C60.8122 42.737 60.6264 41.7503 60.4849 40.7129C60.3434 39.6777 60.277 38.6932 60.2815 37.7572C60.2881 36.8233 60.4097 36.1119 60.6508 35.6274L61.7078 35.6472C62.1015 35.623 62.4398 35.6142 62.7229 35.623C63.0059 35.6318 63.132 35.8124 63.1033 36.167C63.0701 36.4996 63.0347 36.8916 62.9993 37.3409C62.9639 37.7902 62.9285 38.2461 62.8954 38.7064C62.8622 39.1668 62.8379 39.6139 62.8224 40.05C62.8069 40.4838 62.8202 40.8737 62.8578 41.2151C63.0059 40.7459 63.2227 40.1645 63.5079 39.4707C63.791 38.7791 64.1316 38.1294 64.5252 37.5215C64.9188 36.9136 65.3567 36.4225 65.8366 36.0436C66.3187 35.6648 66.8317 35.5547 67.3758 35.7133C67.7207 35.8146 67.9706 36.0216 68.121 36.3322C68.2714 36.6427 68.3753 36.9929 68.4328 37.3783C68.4903 37.766 68.5213 38.1624 68.5257 38.5699C68.5301 38.9773 68.5567 39.3165 68.6053 39.5874C68.7402 40.3319 69.0343 40.7526 69.4832 40.8451C69.9344 40.9398 70.432 40.8781 70.9782 40.6645C71.5244 40.4486 72.0507 40.1557 72.5571 39.7857C73.0636 39.4156 73.4262 39.1271 73.6474 38.9245L73.9835 39.4245L73.9857 39.4178Z" fill="url(#paint6_linear_16_1532)"/>
<path id="Vector_17" d="M72.92 31.8082C72.847 31.4008 72.8625 31.0726 72.9687 30.8193C73.0748 30.5682 73.2252 30.3876 73.4154 30.2841C73.6056 30.1806 73.8201 30.1365 74.0589 30.1497C74.2955 30.1652 74.4968 30.24 74.6626 30.3744C74.7953 30.4669 74.8926 30.6123 74.9523 30.8127C75.012 31.0109 75.0363 31.2179 75.0297 31.4294C75.043 31.8941 74.9567 32.2531 74.7688 32.5086C74.5808 32.7641 74.3619 32.9139 74.112 32.9579C73.8621 33.0042 73.621 32.9293 73.3866 32.7377C73.1522 32.546 72.9974 32.2355 72.92 31.8082ZM81.9449 37.984C81.7149 38.3981 81.4097 38.9024 81.0249 39.4971C80.6401 40.0918 80.2067 40.671 79.7246 41.2348C79.2403 41.8009 78.7294 42.3053 78.1899 42.7524C77.6503 43.1995 77.1239 43.4924 76.6109 43.6312C76.0978 43.7699 75.6003 43.7148 75.1226 43.4616C74.6427 43.2105 74.2358 42.6709 73.8975 41.8449C73.6984 41.3912 73.5348 40.8736 73.4043 40.29C73.276 39.7063 73.1854 39.1161 73.1345 38.5192C73.0859 37.9223 73.0593 37.3254 73.0549 36.7308C73.0527 36.1361 73.0881 35.5877 73.161 35.0855C73.192 34.8697 73.3291 34.6891 73.5724 34.5393C73.8134 34.3917 74.0744 34.3036 74.3508 34.2772C74.6272 34.2508 74.8838 34.275 75.1182 34.3499C75.3548 34.4248 75.4808 34.5767 75.4985 34.8058C75.5273 34.9644 75.5361 35.3014 75.5229 35.8167C75.5118 36.3321 75.5118 36.9092 75.5229 37.5479C75.5339 38.1888 75.5693 38.8341 75.629 39.4883C75.6887 40.1424 75.8015 40.6996 75.9674 41.16C76.1332 41.6203 76.3588 41.9286 76.6441 42.0872C76.9293 42.2458 77.3097 42.1423 77.783 41.7767C78.4796 41.2304 79.1032 40.5719 79.6538 39.7944C80.2045 39.0191 80.702 38.2527 81.151 37.495L81.9427 37.9818L81.9449 37.984Z" fill="url(#paint7_linear_16_1532)"/>
</g>
</g>
<g id="Group_4">
<g id="Group_5">
<path id="Vector_18" d="M72.0486 41.0544C72.3383 40.865 72.6126 40.6667 72.8735 40.4597C73.046 40.3209 73.2052 40.1844 73.3556 40.05C73.5944 39.8342 73.8045 39.625 73.9837 39.4201L73.6475 38.9202C73.5392 39.0193 73.3976 39.1382 73.2229 39.277C73.0394 39.4223 72.816 39.5897 72.5573 39.7813C72.2742 39.9862 71.9867 40.169 71.6948 40.3253L72.0486 41.0544Z" fill="#E91637"/>
<path id="Vector_19" d="M81.1554 37.4973C80.7065 38.255 80.2067 39.0215 79.6582 39.7967C79.1076 40.572 78.484 41.2327 77.7874 41.779C77.3141 42.1446 76.936 42.2459 76.6485 42.0895C76.361 41.9309 76.1354 41.6204 75.9718 41.1601C75.8059 40.7019 75.6931 40.1447 75.6334 39.4906C75.5715 38.8364 75.5361 38.1889 75.5273 37.5502C75.5162 36.9115 75.5162 36.3322 75.5273 35.8168C75.5406 35.3037 75.5317 34.9667 75.503 34.8081C75.4831 34.5768 75.357 34.4249 75.1204 34.3522C74.886 34.2773 74.6294 34.2531 74.353 34.2795C74.0766 34.3059 73.8178 34.394 73.5746 34.5416C73.3335 34.6914 73.1964 34.872 73.1655 35.0878C73.0925 35.5922 73.0571 36.1406 73.0593 36.7353C73.0615 37.3277 73.0881 37.9246 73.1389 38.5215C73.1588 38.7748 73.1876 39.0281 73.2252 39.2769C73.2606 39.5368 73.3048 39.7945 73.3579 40.05C73.3711 40.1315 73.3888 40.213 73.4065 40.2923C73.537 40.8759 73.7006 41.3957 73.8997 41.8494C74.238 42.6754 74.6449 43.2128 75.1248 43.4639C75.6025 43.7171 76.1 43.7744 76.6131 43.6335C77.1262 43.4947 77.6525 43.2018 78.1921 42.7547C78.7317 42.3076 79.2425 41.8032 79.7268 41.2371C80.2089 40.6711 80.6423 40.0919 81.0271 39.4972C81.4097 38.9047 81.7171 38.4004 81.9471 37.9863L81.1554 37.4973ZM74.9523 30.8128C74.8926 30.6146 74.7975 30.4692 74.6626 30.3745C74.499 30.2423 74.2977 30.1675 74.0589 30.152C73.8223 30.1366 73.61 30.1807 73.4176 30.2842C73.2252 30.3899 73.0748 30.5683 72.9687 30.8194C72.8625 31.0727 72.847 31.4009 72.92 31.8083C72.9996 32.2378 73.1544 32.5483 73.3888 32.74C73.621 32.9316 73.8621 33.0043 74.1142 32.958C74.3619 32.914 74.5808 32.7642 74.7688 32.5087C74.9567 32.2532 75.043 31.8942 75.0297 31.4295C75.0386 31.218 75.012 31.0132 74.9523 30.8128Z" fill="#E91637"/>
</g>
<g id="Group_6">
<path id="Vector_20" d="M72.0486 41.0544C72.3383 40.865 72.6126 40.6667 72.8735 40.4597C73.046 40.3209 73.2052 40.1844 73.3556 40.05C73.5944 39.8342 73.8045 39.625 73.9837 39.4201L73.6475 38.9202C73.5392 39.0193 73.3976 39.1382 73.2229 39.277C73.0394 39.4223 72.816 39.5897 72.5573 39.7813C72.2742 39.9862 71.9867 40.169 71.6948 40.3253L72.0486 41.0544Z" fill="white"/>
<path id="Vector_21" d="M81.1554 37.4973C80.7065 38.255 80.2067 39.0215 79.6582 39.7967C79.1076 40.572 78.484 41.2327 77.7874 41.779C77.3141 42.1446 76.936 42.2459 76.6485 42.0895C76.361 41.9309 76.1354 41.6204 75.9718 41.1601C75.8059 40.7019 75.6931 40.1447 75.6334 39.4906C75.5715 38.8364 75.5361 38.1889 75.5273 37.5502C75.5162 36.9115 75.5162 36.3322 75.5273 35.8168C75.5406 35.3037 75.5317 34.9667 75.503 34.8081C75.4831 34.5768 75.357 34.4249 75.1204 34.3522C74.886 34.2773 74.6294 34.2531 74.353 34.2795C74.0766 34.3059 73.8178 34.394 73.5746 34.5416C73.3335 34.6914 73.1964 34.872 73.1655 35.0878C73.0925 35.5922 73.0571 36.1406 73.0593 36.7353C73.0615 37.3277 73.0881 37.9246 73.1389 38.5215C73.1588 38.7748 73.1876 39.0281 73.2252 39.2769C73.2606 39.5368 73.3048 39.7945 73.3579 40.05C73.3711 40.1315 73.3888 40.213 73.4065 40.2923C73.537 40.8759 73.7006 41.3957 73.8997 41.8494C74.238 42.6754 74.6449 43.2128 75.1248 43.4639C75.6025 43.7171 76.1 43.7744 76.6131 43.6335C77.1262 43.4947 77.6525 43.2018 78.1921 42.7547C78.7317 42.3076 79.2425 41.8032 79.7268 41.2371C80.2089 40.6711 80.6423 40.0919 81.0271 39.4972C81.4097 38.9047 81.7171 38.4004 81.9471 37.9863L81.1554 37.4973ZM74.9523 30.8128C74.8926 30.6146 74.7975 30.4692 74.6626 30.3745C74.499 30.2423 74.2977 30.1675 74.0589 30.152C73.8223 30.1366 73.61 30.1807 73.4176 30.2842C73.2252 30.3899 73.0748 30.5683 72.9687 30.8194C72.8625 31.0727 72.847 31.4009 72.92 31.8083C72.9996 32.2378 73.1544 32.5483 73.3888 32.74C73.621 32.9316 73.8621 33.0043 74.1142 32.958C74.3619 32.914 74.5808 32.7642 74.7688 32.5087C74.9567 32.2532 75.043 31.8942 75.0297 31.4295C75.0386 31.218 75.012 31.0132 74.9523 30.8128Z" fill="white"/>
</g>
</g>
</g>
<defs>
<radialGradient id="paint0_radial_16_1532" cx="0" cy="0" r="1" gradientUnits="userSpaceOnUse" gradientTransform="translate(89.6517 25.5862) scale(9.28361 9.24603)">
<stop stop-color="#C21476"/>
<stop offset="1" stop-color="#C21476"/>
</radialGradient>
<linearGradient id="paint1_linear_16_1532" x1="-3.62141e-05" y1="44.6707" x2="81.947" y2="44.6707" gradientUnits="userSpaceOnUse">
<stop stop-color="#F89A1C"/>
<stop offset="0.38" stop-color="#E91637"/>
<stop offset="0.68" stop-color="#C21476"/>
<stop offset="0.99" stop-color="#13389E"/>
</linearGradient>
<linearGradient id="paint2_linear_16_1532" x1="-0.000126429" y1="44.6707" x2="81.9469" y2="44.6707" gradientUnits="userSpaceOnUse">
<stop stop-color="#F89A1C"/>
<stop offset="0.38" stop-color="#E91637"/>
<stop offset="0.68" stop-color="#C21476"/>
<stop offset="0.99" stop-color="#13389E"/>
</linearGradient>
<linearGradient id="paint3_linear_16_1532" x1="-0.000144288" y1="44.6708" x2="81.9469" y2="44.6708" gradientUnits="userSpaceOnUse">
<stop stop-color="#F89A1C"/>
<stop offset="0.38" stop-color="#E91637"/>
<stop offset="0.68" stop-color="#C21476"/>
<stop offset="0.99" stop-color="#13389E"/>
</linearGradient>
<linearGradient id="paint4_linear_16_1532" x1="-0.000142337" y1="44.6707" x2="81.9469" y2="44.6707" gradientUnits="userSpaceOnUse">
<stop stop-color="#F89A1C"/>
<stop offset="0.38" stop-color="#E91637"/>
<stop offset="0.68" stop-color="#C21476"/>
<stop offset="0.99" stop-color="#13389E"/>
</linearGradient>
<linearGradient id="paint5_linear_16_1532" x1="-5.64895e-06" y1="44.6707" x2="81.947" y2="44.6707" gradientUnits="userSpaceOnUse">
<stop stop-color="#F89A1C"/>
<stop offset="0.38" stop-color="#E91637"/>
<stop offset="0.68" stop-color="#C21476"/>
<stop offset="0.99" stop-color="#13389E"/>
</linearGradient>
<linearGradient id="paint6_linear_16_1532" x1="-9.56622e-05" y1="44.6708" x2="81.9469" y2="44.6708" gradientUnits="userSpaceOnUse">
<stop stop-color="#F89A1C"/>
<stop offset="0.38" stop-color="#E91637"/>
<stop offset="0.68" stop-color="#C21476"/>
<stop offset="0.99" stop-color="#13389E"/>
</linearGradient>
<linearGradient id="paint7_linear_16_1532" x1="9.00207e-05" y1="44.6707" x2="81.9471" y2="44.6707" gradientUnits="userSpaceOnUse">
<stop stop-color="#F89A1C"/>
<stop offset="0.38" stop-color="#E91637"/>
<stop offset="0.68" stop-color="#C21476"/>
<stop offset="0.99" stop-color="#13389E"/>
</linearGradient>
<clipPath id="clip0_16_1532">
<rect width="113" height="61" fill="white"/>
</clipPath>
</defs>
</svg>
